<?xml version="1.0" encoding="UTF-8" standalone="no"?>
<!-- Created with Inkscape (http://www.inkscape.org/) -->

<svg
   xmlns:dc="http://purl.org/dc/elements/1.1/"
   xmlns:cc="http://creativecommons.org/ns#"
   xmlns:rdf="http://www.w3.org/1999/02/22-rdf-syntax-ns#"
   xmlns:svg="http://www.w3.org/2000/svg"
   xmlns="http://www.w3.org/2000/svg"
   xmlns:sodipodi="http://sodipodi.sourceforge.net/DTD/sodipodi-0.dtd"
   xmlns:inkscape="http://www.inkscape.org/namespaces/inkscape"
   width="68mm"
   height="42mm"
   viewBox="0 0 240.94487 148.8189"
   id="svg2"
   version="1.1"
   inkscape:version="0.91 r13725"
   sodipodi:docname="cola1.svg">
  <defs
     id="defs4" />
  <sodipodi:namedview
     id="base"
     pagecolor="#ffffff"
     bordercolor="#666666"
     borderopacity="1.0"
     inkscape:pageopacity="0.0"
     inkscape:pageshadow="2"
     inkscape:zoom="2.8"
     inkscape:cx="54.13023"
     inkscape:cy="107.3185"
     inkscape:document-units="px"
     inkscape:current-layer="layer1"
     showgrid="false"
     units="mm"
     inkscape:window-width="1867"
     inkscape:window-height="1056"
     inkscape:window-x="53"
     inkscape:window-y="24"
     inkscape:window-maximized="1" />
  <metadata
     id="metadata7">
    <rdf:RDF>
      <cc:Work
         rdf:about="">
        <dc:format>image/svg+xml</dc:format>
        <dc:type
           rdf:resource="http://purl.org/dc/dcmitype/StillImage" />
        <dc:title></dc:title>
      </cc:Work>
    </rdf:RDF>
  </metadata>
  <g
     inkscape:label="Layer 1"
     inkscape:groupmode="layer"
     id="layer1"
     transform="translate(0,-903.54327)">
    <g
       transform="matrix(0.93300656,0,0,-0.93300656,17.465617,1097.3074)"
       inkscape:label="cola"
       id="g4163"
       style="opacity:1">
      <g
         id="g4165"
         style="">
        <path
           inkscape:connector-curvature="0"
           id="path4167"
           style="fill:#ffffff;fill-opacity:1;fill-rule:nonzero;stroke:none"
           d="m 0,233.626 260.055,0 0,-233.625 L 0,0.001 0,233.626 Z" />
        <path
           inkscape:connector-curvature="0"
           id="path4169"
           style="fill:#231f20;fill-opacity:1;fill-rule:nonzero;stroke:none"
           d="m 47.574,200.356 1.871,0 0,-138.898 -1.871,0 0,138.898 z" />
        <path
           inkscape:connector-curvature="0"
           id="path4171"
           style="fill:#231f20;fill-opacity:1;fill-rule:nonzero;stroke:none"
           d="m 51.316,200.356 1.867,0 0,-138.898 -1.867,0 0,138.898 z" />
        <path
           inkscape:connector-curvature="0"
           id="path4173"
           style="fill:#231f20;fill-opacity:1;fill-rule:nonzero;stroke:none"
           d="m 58.797,200.356 3.742,0 0,-129.543 -3.742,0 0,129.543 z" />
        <path
           inkscape:connector-curvature="0"
           id="path4175"
           style="fill:#231f20;fill-opacity:1;fill-rule:nonzero;stroke:none"
           d="m 64.41,200.356 1.871,0 0,-129.543 -1.871,0 0,129.543 z" />
        <path
           inkscape:connector-curvature="0"
           id="path4177"
           style="fill:#231f20;fill-opacity:1;fill-rule:nonzero;stroke:none"
           d="m 68.152,200.356 1.871,0 0,-129.543 -1.871,0 0,129.543 z" />
        <path
           inkscape:connector-curvature="0"
           id="path4179"
           style="fill:#231f20;fill-opacity:1;fill-rule:nonzero;stroke:none"
           d="m 73.766,200.356 5.613,0 0,-129.543 -5.613,0 0,129.543 z" />
        <path
           inkscape:connector-curvature="0"
           id="path4181"
           style="fill:#231f20;fill-opacity:1;fill-rule:nonzero;stroke:none"
           d="m 81.25,200.356 1.871,0 0,-129.543 -1.871,0 0,129.543 z" />
        <path
           inkscape:connector-curvature="0"
           id="path4183"
           style="fill:#231f20;fill-opacity:1;fill-rule:nonzero;stroke:none"
           d="m 86.859,200.356 5.613,0 0,-129.543 -5.613,0 0,129.543 z" />
        <path
           inkscape:connector-curvature="0"
           id="path4185"
           style="fill:#231f20;fill-opacity:1;fill-rule:nonzero;stroke:none"
           d="m 96.215,200.356 3.742,0 0,-129.543 -3.742,0 0,129.543 z" />
        <path
           inkscape:connector-curvature="0"
           id="path4187"
           style="fill:#231f20;fill-opacity:1;fill-rule:nonzero;stroke:none"
           d="m 103.699,200.356 1.871,0 0,-129.543 -1.871,0 0,129.543 z" />
        <path
           inkscape:connector-curvature="0"
           id="path4189"
           style="fill:#231f20;fill-opacity:1;fill-rule:nonzero;stroke:none"
           d="m 109.312,200.356 3.742,0 0,-129.543 -3.742,0 0,129.543 z" />
        <path
           inkscape:connector-curvature="0"
           id="path4191"
           style="fill:#231f20;fill-opacity:1;fill-rule:nonzero;stroke:none"
           d="m 116.797,200.356 1.867,0 0,-129.543 -1.867,0 0,129.543 z" />
        <path
           inkscape:connector-curvature="0"
           id="path4193"
           style="fill:#231f20;fill-opacity:1;fill-rule:nonzero;stroke:none"
           d="m 122.406,200.356 3.742,0 0,-129.543 -3.742,0 0,129.543 z" />
        <path
           inkscape:connector-curvature="0"
           id="path4195"
           style="fill:#231f20;fill-opacity:1;fill-rule:nonzero;stroke:none"
           d="m 128.02,200.356 3.742,0 0,-129.543 -3.742,0 0,129.543 z" />
        <path
           inkscape:connector-curvature="0"
           id="path4197"
           style="fill:#231f20;fill-opacity:1;fill-rule:nonzero;stroke:none"
           d="m 133.633,200.356 1.871,0 0,-138.898 -1.871,0 0,138.898 z" />
        <path
           inkscape:connector-curvature="0"
           id="path4199"
           style="fill:#231f20;fill-opacity:1;fill-rule:nonzero;stroke:none"
           d="m 137.375,200.356 1.871,0 0,-138.898 -1.871,0 0,138.898 z" />
        <path
           inkscape:connector-curvature="0"
           id="path4201"
           style="fill:#231f20;fill-opacity:1;fill-rule:nonzero;stroke:none"
           d="m 141.117,200.356 1.871,0 0,-129.543 -1.871,0 0,129.543 z" />
        <path
           inkscape:connector-curvature="0"
           id="path4203"
           style="fill:#231f20;fill-opacity:1;fill-rule:nonzero;stroke:none"
           d="m 146.73,200.356 5.609,0 0,-129.543 -5.609,0 0,129.543 z" />
        <path
           inkscape:connector-curvature="0"
           id="path4205"
           style="fill:#231f20;fill-opacity:1;fill-rule:nonzero;stroke:none"
           d="m 154.211,200.356 1.871,0 0,-129.543 -1.871,0 0,129.543 z" />
        <path
           inkscape:connector-curvature="0"
           id="path4207"
           style="fill:#231f20;fill-opacity:1;fill-rule:nonzero;stroke:none"
           d="m 157.953,200.356 5.613,0 0,-129.543 -5.613,0 0,129.543 z" />
        <path
           inkscape:connector-curvature="0"
           id="path4209"
           style="fill:#231f20;fill-opacity:1;fill-rule:nonzero;stroke:none"
           d="m 167.309,200.356 1.871,0 0,-129.543 -1.871,0 0,129.543 z" />
        <path
           inkscape:connector-curvature="0"
           id="path4211"
           style="fill:#231f20;fill-opacity:1;fill-rule:nonzero;stroke:none"
           d="m 172.922,200.356 1.871,0 0,-129.543 -1.871,0 0,129.543 z" />
        <path
           inkscape:connector-curvature="0"
           id="path4213"
           style="fill:#231f20;fill-opacity:1;fill-rule:nonzero;stroke:none"
           d="m 180.406,200.356 5.609,0 0,-129.543 -5.609,0 0,129.543 z" />
        <path
           inkscape:connector-curvature="0"
           id="path4215"
           style="fill:#231f20;fill-opacity:1;fill-rule:nonzero;stroke:none"
           d="m 189.758,200.356 1.871,0 0,-129.543 -1.871,0 0,129.543 z" />
        <path
           inkscape:connector-curvature="0"
           id="path4217"
           style="fill:#231f20;fill-opacity:1;fill-rule:nonzero;stroke:none"
           d="m 193.5,200.356 1.871,0 0,-129.543 -1.871,0 0,129.543 z" />
        <path
           inkscape:connector-curvature="0"
           id="path4219"
           style="fill:#231f20;fill-opacity:1;fill-rule:nonzero;stroke:none"
           d="m 197.242,200.356 1.871,0 0,-129.543 -1.871,0 0,129.543 z" />
        <path
           inkscape:connector-curvature="0"
           id="path4221"
           style="fill:#231f20;fill-opacity:1;fill-rule:nonzero;stroke:none"
           d="m 206.598,200.356 1.871,0 0,-129.543 -1.871,0 0,129.543 z" />
        <path
           inkscape:connector-curvature="0"
           id="path4223"
           style="fill:#231f20;fill-opacity:1;fill-rule:nonzero;stroke:none"
           d="m 212.211,200.356 1.867,0 0,-129.543 -1.867,0 0,129.543 z" />
        <path
           inkscape:connector-curvature="0"
           id="path4225"
           style="fill:#231f20;fill-opacity:1;fill-rule:nonzero;stroke:none"
           d="m 219.691,200.356 1.871,0 0,-138.898 -1.871,0 0,138.898 z" />
        <path
           inkscape:connector-curvature="0"
           id="path4227"
           style="fill:#231f20;fill-opacity:1;fill-rule:nonzero;stroke:none"
           d="m 223.434,200.356 1.871,0 0,-138.898 -1.871,0 0,138.898 z" />
        <path
           inkscape:connector-curvature="0"
           id="path4229"
           style="fill:#000000;fill-opacity:1;fill-rule:nonzero;stroke:none"
           d="m 155.145,59.032 c 0,-1.125 -0.454,-2.07 -1.36,-2.828 -0.898,-0.762 -2.121,-1.141 -3.672,-1.141 -1.031,0 -1.933,0.188 -2.703,0.563 -0.762,0.382 -1.355,0.914 -1.781,1.593 -0.418,0.676 -0.727,1.422 -0.922,2.235 -0.199,0.812 -0.297,1.707 -0.297,2.687 0,0.989 0.098,1.899 0.297,2.735 0.195,0.832 0.504,1.597 0.922,2.297 0.426,0.707 1.019,1.257 1.781,1.656 0.77,0.406 1.68,0.609 2.735,0.609 1.644,0 2.878,-0.371 3.703,-1.109 0.82,-0.742 1.234,-1.688 1.234,-2.844 l -1.937,0 c 0,0.82 -0.243,1.43 -0.719,1.828 -0.469,0.406 -1.231,0.61 -2.281,0.61 -2.512,0 -3.766,-1.922 -3.766,-5.766 0,-2 0.312,-3.43 0.937,-4.281 0.625,-0.844 1.547,-1.266 2.766,-1.266 2.082,0 3.125,0.805 3.125,2.422 l 1.938,0 z" />
        <path
           inkscape:connector-curvature="0"
           id="path4231"
           style="fill:#000000;fill-opacity:1;fill-rule:nonzero;stroke:none"
           d="m 164.117,57.485 c 0.508,0.758 0.766,1.641 0.766,2.641 0,1.007 -0.258,1.898 -0.766,2.672 -0.5,0.769 -1.215,1.156 -2.14,1.156 -0.961,0 -1.688,-0.387 -2.188,-1.156 -0.5,-0.762 -0.75,-1.653 -0.75,-2.672 0,-1.012 0.25,-1.899 0.75,-2.657 0.5,-0.75 1.227,-1.125 2.188,-1.125 0.925,0 1.64,0.379 2.14,1.141 z m 2.563,2.641 c 0,-1.625 -0.446,-2.871 -1.328,-3.735 -0.887,-0.867 -2.012,-1.297 -3.375,-1.297 -1.387,0 -2.516,0.43 -3.391,1.297 -0.875,0.864 -1.313,2.11 -1.313,3.735 0,1.644 0.438,2.894 1.313,3.75 0.875,0.851 2.004,1.281 3.391,1.281 1.375,0 2.5,-0.43 3.375,-1.281 0.882,-0.856 1.328,-2.106 1.328,-3.75 z" />
        <path
           inkscape:connector-curvature="0"
           id="path4233"
           style="fill:#000000;fill-opacity:1;fill-rule:nonzero;stroke:none"
           d="m 168.918,69.173 1.734,0 0,-13.812 -1.734,0 0,13.812 z" />
        <path
           inkscape:connector-curvature="0"
           id="path4235"
           style="fill:#000000;fill-opacity:1;fill-rule:nonzero;stroke:none"
           d="m 179.395,60.063 c -0.43,0.039 -0.747,0.063 -0.954,0.063 -0.375,0 -0.757,-0.032 -1.14,-0.094 -0.387,-0.063 -0.789,-0.164 -1.203,-0.297 -0.407,-0.137 -0.746,-0.352 -1.016,-0.641 -0.262,-0.281 -0.391,-0.617 -0.391,-1 0,-0.523 0.18,-0.937 0.547,-1.25 0.364,-0.304 0.813,-0.453 1.344,-0.453 1.094,0 1.832,0.321 2.219,0.969 0.394,0.645 0.594,1.547 0.594,2.703 z m 2.031,-4.703 -1.703,0 c -0.106,0.445 -0.184,0.906 -0.235,1.375 -0.461,-0.586 -0.906,-1.008 -1.343,-1.266 -0.43,-0.25 -0.95,-0.375 -1.563,-0.375 -0.918,0 -1.762,0.247 -2.531,0.735 -0.762,0.5 -1.141,1.179 -1.141,2.047 0,0.687 0.156,1.269 0.469,1.75 0.32,0.488 0.754,0.851 1.297,1.093 0.539,0.239 1.086,0.407 1.64,0.5 0.563,0.102 1.161,0.157 1.797,0.157 l 1.313,0 c 0.031,0.257 0.047,0.453 0.047,0.578 0,1.281 -0.715,1.922 -2.141,1.922 -0.574,0 -1.074,-0.133 -1.5,-0.391 -0.418,-0.25 -0.625,-0.633 -0.625,-1.141 l -1.781,0 c 0,1.875 1.281,2.813 3.844,2.813 2.082,0 3.316,-0.539 3.703,-1.609 0.125,-0.336 0.187,-1.122 0.187,-2.36 l 0,-3.14 c 0,-1.368 0.086,-2.262 0.266,-2.688 z" />
        <path
           inkscape:connector-curvature="0"
           id="path4237"
           style="fill:#000000;fill-opacity:1;fill-rule:nonzero;stroke:none"
           d="m 198.57,62.532 c 0,0.832 -0.031,1.531 -0.093,2.094 -0.055,0.57 -0.168,1.117 -0.344,1.64 -0.168,0.52 -0.43,0.91 -0.781,1.172 -0.356,0.258 -0.797,0.391 -1.329,0.391 -0.543,0 -0.992,-0.133 -1.343,-0.391 -0.344,-0.262 -0.606,-0.652 -0.782,-1.172 -0.168,-0.523 -0.281,-1.07 -0.343,-1.64 -0.055,-0.563 -0.078,-1.262 -0.078,-2.094 0,-0.856 0.023,-1.59 0.078,-2.203 0.062,-0.606 0.172,-1.211 0.328,-1.813 0.164,-0.605 0.426,-1.062 0.781,-1.375 0.363,-0.312 0.816,-0.468 1.359,-0.468 0.532,0 0.973,0.156 1.329,0.468 0.351,0.313 0.613,0.766 0.781,1.36 0.176,0.601 0.289,1.211 0.344,1.828 0.062,0.625 0.093,1.359 0.093,2.203 z m 1.844,0 c 0,-0.762 -0.027,-1.445 -0.078,-2.047 -0.055,-0.594 -0.168,-1.25 -0.344,-1.969 -0.18,-0.718 -0.418,-1.312 -0.719,-1.781 -0.304,-0.469 -0.73,-0.867 -1.281,-1.187 -0.554,-0.321 -1.211,-0.485 -1.969,-0.485 -0.75,0 -1.402,0.164 -1.953,0.485 -0.554,0.32 -0.98,0.718 -1.281,1.187 -0.305,0.469 -0.543,1.063 -0.719,1.781 -0.179,0.719 -0.293,1.375 -0.343,1.969 -0.055,0.602 -0.079,1.285 -0.079,2.047 0,0.75 0.024,1.41 0.079,1.984 0.05,0.582 0.164,1.196 0.343,1.844 0.176,0.645 0.414,1.176 0.719,1.594 0.301,0.426 0.727,0.781 1.281,1.062 0.551,0.282 1.203,0.422 1.953,0.422 0.758,0 1.415,-0.14 1.969,-0.422 0.551,-0.281 0.977,-0.636 1.281,-1.062 0.301,-0.418 0.539,-0.949 0.719,-1.594 0.176,-0.648 0.289,-1.262 0.344,-1.844 0.051,-0.574 0.078,-1.234 0.078,-1.984 z" />
        <path
           inkscape:connector-curvature="0"
           id="path4239"
           style="fill:#000000;fill-opacity:1;fill-rule:nonzero;stroke:none"
           d="m 204.801,56.266 c 0,-0.343 -0.125,-0.636 -0.375,-0.875 -0.25,-0.238 -0.547,-0.359 -0.891,-0.359 -0.344,0 -0.648,0.121 -0.906,0.359 -0.262,0.239 -0.391,0.532 -0.391,0.875 0,0.321 0.129,0.602 0.391,0.844 0.258,0.25 0.562,0.375 0.906,0.375 0.32,0 0.613,-0.125 0.875,-0.375 0.258,-0.242 0.391,-0.523 0.391,-0.844 z" />
        <path
           inkscape:connector-curvature="0"
           id="path4241"
           style="fill:#000000;fill-opacity:1;fill-rule:nonzero;stroke:none"
           d="m 215.348,59.876 c 0,-1.168 -0.414,-2.258 -1.235,-3.266 -0.812,-1.012 -1.777,-1.516 -2.89,-1.516 -1.418,0 -2.532,0.317 -3.344,0.954 -0.813,0.644 -1.219,1.535 -1.219,2.671 l 2.047,0 c 0,-0.687 0.207,-1.214 0.625,-1.578 0.414,-0.355 0.969,-0.531 1.656,-0.531 0.645,0 1.207,0.285 1.688,0.859 0.488,0.571 0.734,1.36 0.734,2.36 0,2.187 -0.746,3.281 -2.234,3.281 -1.086,0 -1.946,-0.664 -2.578,-1.984 l -1.703,0 0.265,8.047 7.297,0 0,-1.61 -5.422,0 -0.25,-4.312 c 0.375,0.457 0.758,0.785 1.156,0.984 0.407,0.195 0.946,0.297 1.625,0.297 1.176,0 2.098,-0.453 2.766,-1.359 0.676,-0.899 1.016,-1.997 1.016,-3.297 z" />
        <path
           inkscape:connector-curvature="0"
           id="path4243"
           style="fill:#000000;fill-opacity:1;fill-rule:nonzero;stroke:none"
           d="m 61.855,64.266 c 0,0.77 -0.25,1.313 -0.75,1.625 -0.5,0.321 -1.289,0.485 -2.359,0.485 l -1.875,0 0,-4.172 1.875,0 c 1.082,0 1.867,0.156 2.359,0.469 0.5,0.312 0.75,0.843 0.75,1.593 z m 1.672,0 c 0,-0.75 -0.136,-1.375 -0.406,-1.875 -0.262,-0.5 -0.641,-0.871 -1.141,-1.109 -0.492,-0.231 -0.992,-0.391 -1.5,-0.484 -0.5,-0.086 -1.101,-0.125 -1.796,-0.125 l -1.813,0 0,-5.329 -1.719,0 0,12.563 3.532,0 c 0.539,0 1.019,-0.027 1.437,-0.078 0.426,-0.043 0.859,-0.141 1.297,-0.297 0.445,-0.156 0.816,-0.367 1.109,-0.625 0.289,-0.25 0.532,-0.602 0.719,-1.047 0.188,-0.449 0.281,-0.98 0.281,-1.594 z" />
        <path
           inkscape:connector-curvature="0"
           id="path4245"
           style="fill:#000000;fill-opacity:1;fill-rule:nonzero;stroke:none"
           d="m 65.629,67.907 1.594,0 0,-12.562 -1.594,0 0,12.562 z" />
        <path
           inkscape:connector-curvature="0"
           id="path4247"
           style="fill:#000000;fill-opacity:1;fill-rule:nonzero;stroke:none"
           d="m 77.117,55.344 -1.578,0 0,1.11 c -0.555,-0.899 -1.434,-1.344 -2.641,-1.344 -2.23,0 -3.343,1.063 -3.343,3.188 l 0,5.734 1.593,0 0,-5.75 c 0,-0.606 0.207,-1.109 0.625,-1.516 0.415,-0.398 0.899,-0.593 1.454,-0.593 0.644,0 1.191,0.207 1.64,0.625 0.445,0.425 0.672,0.976 0.672,1.656 l 0,5.578 1.578,0 0,-8.688 z" />
        <path
           inkscape:connector-curvature="0"
           id="path4249"
           style="fill:#000000;fill-opacity:1;fill-rule:nonzero;stroke:none"
           d="m 83.742,55.344 c -0.449,-0.156 -0.875,-0.234 -1.281,-0.234 -0.813,0 -1.387,0.184 -1.719,0.547 -0.324,0.363 -0.484,1.019 -0.484,1.969 l 0,5.297 -1.594,0 0,1.109 1.594,0 0,1.75 1.578,0.641 0,-2.391 1.906,0 0,-1.109 -1.906,0 0,-5.297 c 0,-0.524 0.07,-0.875 0.219,-1.063 0.156,-0.18 0.394,-0.265 0.718,-0.265 0.332,0 0.657,0.05 0.969,0.156 l 0,-1.11 z" />
        <path
           inkscape:connector-curvature="0"
           id="path4251"
           style="fill:#000000;fill-opacity:1;fill-rule:nonzero;stroke:none"
           d="m 91.289,57.282 c 0.457,0.687 0.688,1.484 0.688,2.391 0,0.914 -0.231,1.722 -0.688,2.421 -0.461,0.707 -1.109,1.063 -1.953,1.063 -0.875,0 -1.543,-0.352 -2,-1.047 -0.449,-0.699 -0.672,-1.512 -0.672,-2.437 0,-0.918 0.223,-1.719 0.672,-2.407 0.457,-0.679 1.125,-1.015 2,-1.015 0.844,0 1.492,0.343 1.953,1.031 z m 2.328,2.406 c 0,-1.492 -0.406,-2.625 -1.219,-3.406 -0.804,-0.781 -1.824,-1.172 -3.062,-1.172 -1.262,0 -2.293,0.391 -3.094,1.172 -0.793,0.781 -1.187,1.914 -1.187,3.406 0,1.488 0.394,2.617 1.187,3.391 0.801,0.781 1.832,1.172 3.094,1.172 1.25,0 2.273,-0.391 3.078,-1.172 0.801,-0.774 1.203,-1.903 1.203,-3.391 z" />
        <path
           inkscape:connector-curvature="0"
           id="path4253"
           style="fill:#000000;fill-opacity:1;fill-rule:nonzero;stroke:none"
           d="m 103.051,55.344 -1.547,0 0,5.766 c 0,0.582 -0.215,1.078 -0.641,1.484 -0.418,0.414 -0.918,0.625 -1.5,0.625 -0.625,0 -1.164,-0.218 -1.609,-0.656 -0.449,-0.43 -0.672,-0.961 -0.672,-1.594 l 0,-5.625 -1.594,0 0,8.688 1.594,0 0,-1.109 c 0.625,0.882 1.5,1.328 2.625,1.328 2.227,0 3.344,-1.071 3.344,-3.203 l 0,-5.704 z" />
        <path
           inkscape:connector-curvature="0"
           id="path4255"
           style="fill:#000000;fill-opacity:1;fill-rule:nonzero;stroke:none"
           d="m 106.93,55.344 -1.594,0 0,8.688 1.594,0 0,-8.688 z m 0.047,10.954 -1.688,0 0,1.609 1.688,0 0,-1.609 z" />
        <path
           inkscape:connector-curvature="0"
           id="path4257"
           style="fill:#000000;fill-opacity:1;fill-rule:nonzero;stroke:none"
           d="m 116.824,55.344 -1.578,0 0,1.11 c -0.555,-0.899 -1.434,-1.344 -2.641,-1.344 -2.23,0 -3.343,1.063 -3.343,3.188 l 0,5.734 1.593,0 0,-5.75 c 0,-0.606 0.207,-1.109 0.625,-1.516 0.415,-0.398 0.899,-0.593 1.454,-0.593 0.644,0 1.191,0.207 1.64,0.625 0.446,0.425 0.672,0.976 0.672,1.656 l 0,5.578 1.578,0 0,-8.688 z" />
        <path
           inkscape:connector-curvature="0"
           id="path4259"
           style="fill:#000000;fill-opacity:1;fill-rule:nonzero;stroke:none"
           d="m 132.262,55.344 -1.578,0 0,5.625 c 0,0.676 -0.168,1.207 -0.5,1.594 -0.325,0.395 -0.809,0.594 -1.454,0.594 -0.605,0 -1.132,-0.242 -1.578,-0.719 -0.437,-0.469 -0.656,-0.961 -0.656,-1.469 l 0,-5.625 -1.578,0 0,5.625 c 0,0.582 -0.184,1.094 -0.547,1.532 -0.355,0.437 -0.809,0.656 -1.359,0.656 -0.649,0 -1.2,-0.242 -1.657,-0.719 -0.46,-0.48 -0.687,-0.969 -0.687,-1.469 l 0,-5.625 -1.594,0 0,8.688 1.594,0 0,-1.188 c 0.695,0.938 1.555,1.407 2.578,1.407 0.789,0 1.395,-0.121 1.813,-0.36 0.425,-0.23 0.812,-0.617 1.156,-1.156 0.738,1.008 1.676,1.516 2.812,1.516 2.157,0 3.235,-1.094 3.235,-3.282 l 0,-5.625 z" />
      </g>
    </g>
    <path
       style="fill:none;fill-opacity:1;fill-rule:nonzero;stroke:#000000;stroke-width:0.09;stroke-linecap:round;stroke-linejoin:miter;stroke-miterlimit:4;stroke-dasharray:none;stroke-dashoffset:0;stroke-opacity:1"
       d="m 30.089427,925.50946 a 7.8081622,7.8081622 0 0 1 -7.808162,7.80816 7.8081622,7.8081622 0 0 1 -7.808162,-7.80816 7.8081622,7.8081622 0 0 1 7.808162,-7.80816 7.8081622,7.8081622 0 0 1 7.808162,7.80816 z"
       id="path4310" />
  </g>
</svg>
